# AST/ASF file generated using VICON BodyLanguage
# -----------------------------------------------
:version 1.10
:name VICON
:units
  mass 1.0
  length 0.45
  angle deg
:documentation
   .ast/.asf automatically generated from VICON data using
   VICON BodyBuilder and BodyLanguage model FoxedUp or BRILLIANT.MOD
:root
   order TX TY TZ RX RY RZ
   axis XYZ
   position 0 0 0  
   orientation 0 0 0 
:bonedata
  begin
     id 1 
     name lhipjoint
     direction 0.578396 -0.714046 0.394458 
     length 2.21935 
     axis 0 0 0  XYZ
  end
  begin
     id 2 
     name lfemur
     direction 0.34202 -0.939693 0  
     length 6.39105  
     axis 0 0 20  XYZ
    dof rx ry rz
    limits (-160.0 20.0)
           (-70.0 70.0)
           (-60.0 70.0)
  end
  begin
     id 3 
     name ltibia
     direction 0.34202 -0.939693 0   
     length 6.99037   
     axis 0 0 20   XYZ
    dof rx
    limits (-10.0 170.0)
  end
  begin
     id 4 
     name lfoot
     direction 0.0582372 -0.160005 0.985397   
     length 2.06111   
     axis -90 7.62852e-016 20   XYZ
    dof rx rz
    limits (-45.0 90.0)
           (-70.0 20.0)
  end
  begin
     id 5 
     name ltoes
     direction 1.53556e-011 -4.21875e-011 1   
     length 1.04074   
     axis -90 7.62852e-016 20   XYZ
    dof rx
    limits (-90.0 20.0)
  end
  begin
     id 6 
     name rhipjoint
     direction -0.558179 -0.726269 0.40121   
     length 2.182  
     axis 0 0 0  XYZ 
  end
  begin
     id 7 
     name rfemur
     direction -0.34202 -0.939693 0   
     length 6.51172   
     axis 0 0 -20   XYZ
    dof rx ry rz
    limits (-160.0 20.0)
           (-70.0 70.0)
           (-70.0 60.0)
  end
  begin
     id 8 
     name rtibia
     direction -0.34202 -0.939693 0   
     length 7.02607   
     axis 0 0 -20   XYZ
    dof rx
    limits (-10.0 170.0)
 end
 begin
     id 9 
     name rfoot
     direction -0.0788856 -0.216737 0.973038   
     length 1.96734  
     axis -90 -7.62852e-016 -20   XYZ
    dof rx rz
    limits (-45.0 90.0)
           (-20.0 70.0)
  end
  begin
     id 10 
     name rtoes
     direction -1.53567e-011 -4.21783e-011 1   
     length 0.990825   
     axis -90 -7.62852e-016 -20   XYZ
    dof rx
    limits (-90.0 20.0)
  end
  begin
     id 11 
     name lowerback
     direction 0.00668177 0.999323 -0.0361741   
     length 1.7655   
     axis 0 0 0   XYZ
    dof rx ry rz
    limits (-20.0 45.0)
           (-30.0 30.0)
           (-30.0 30.0)
  end
  begin
     id 12 
     name upperback
     direction -0.00222086 0.99851 0.0545167   
     length 1.74912   
     axis 0 0 0   XYZ
    dof rx ry rz
    limits (-20.0 45.0)
           (-30.0 30.0)
           (-30.0 30.0)
  end
  begin
     id 13 
     name thorax
     direction -0.00733971 0.997496 0.0703443   
     length 1.75715   
     axis 0 0 0   XYZ
    dof rx ry rz
    limits (-20.0 45.0)
           (-30.0 30.0)
           (-30.0 30.0)
  end
  begin
     id 14 
     name lowerneck
     direction 0.0279797 0.994795 0.0979765   
     length 1.46939   
     axis 0 0 0   XYZ
    dof rx ry rz
    limits (-20.0 45.0)
           (-30.0 30.0)
           (-30.0 30.0)
  end
  begin
     id 15 
     name upperneck
     direction 0.00339187 0.976776 -0.214238   
     length 1.48018   
     axis 0 0 0   XYZ
    dof rx ry rz
    limits (-20.0 45.0)
           (-30.0 30.0)
           (-30.0 30.0)
  end
  begin
     id 16
     name head
     direction -0.00263506 0.996603 -0.0823096  
     length 1.4976  
     axis 0 0 0   XYZ
    dof rx ry rz
    limits (-20.0 45.0)
           (-30.0 30.0)
           (-30.0 30.0)
  end
  begin
     id 17 
     name lclavicle
     direction 0.894044 0.44508 -0.0508781  
     length 3.03024  
     axis 0 0 0   XYZ
    dof ry rz
    limits (-20.0 10.0)
           (0.0 20.0)
  end
  begin
     id 18 
     name lhumerus
     direction 1 -4.48961e-011 -2.39475e-018   
     length 4.4661   
     axis 180 -30 -90   XYZ
    dof rx ry rz
    limits (-60.0 90.0)
           (-90.0 90.0)
           (-90.0 90.0)
  end
  begin
     id 19
     name lradius
     direction 1 -4.48961e-011 9.29328e-028   
     length 3.41414   
     axis 180 -30 -90   XYZ
    dof rx
    limits (-10.0 170.0)
  end
  begin
     id 20
     name lwrist
     direction 1 -4.48985e-011 1.53461e-026   
     length 1.70707   
     axis -1.09697e-014 90 90   XYZ
    dof ry
    limits (-180.0 0.0)
 end
  begin
     id 21 
     name lhand
     direction 1 -4.48966e-011 3.06923e-026   
     length 0.328298   
     axis -1.95843e-014 90 90   XYZ
    dof rx rz
    limits (-90.0 90.0)
           (-45.0 45.0)
  end
  begin
     id 22 
     name lfingers
     direction 1 -4.48893e-011 6.13845e-026   
     length 0.264682   
     axis -3.91686e-014 90 90   XYZ
    dof rx
    limits (0.0 90.0)
  end
  begin
     id 23
     name lthumb
     direction 0.707107 -6.34876e-011 0.707107   
     length 0.380032   
     axis -90 45 2.85299e-015   XYZ
    dof rx rz
    limits (-45.0 45.0)
           (-45.0 45.0)
  end
  begin
     id 24 
     name rclavicle
     direction -0.936955 0.347862 -0.0332887   
     length 3.26927  
     axis 0 0 0   XYZ 
    dof ry rz
    limits (-10.0 20.0)
           (-20.0 0.0)
  end
  begin
     id 25 
     name rhumerus
     direction -1 -4.4896e-011 1.78637e-018  
     length 4.40431   
     axis 180 30 90   XYZ
    dof rx ry rz
    limits (-90.0 60.0)
           (-90.0 90.0)
           (-90.0 90.0)
  end
  begin
     id 26 
     name rradius
     direction -1 -4.48955e-011 9.34036e-027   
     length 3.04688   
     axis 180 30 90   XYZ
    dof rx
    limits (-10.0 170.0)
  end
  begin
     id 27 
     name rwrist
     direction -1 -4.49011e-011 1.53461e-026   
     length 1.52344   
     axis -1.09697e-014 -90 -90   XYZ
    dof ry
    limits (-180.0 0.0)
  end
  begin
     id 28
     name rhand
     direction -1 -4.48834e-011 3.06923e-026   
     length 0.500489   
     axis -1.95843e-014 -90 -90   XYZ
    dof rx rz
    limits (-90.0 90.0)
           (-45.0 45.0)
  end
  begin
     id 29
     name rfingers
     direction -1 -4.48967e-011 6.13845e-026   
     length 0.403507   
     axis -3.91686e-014 -90 -90   XYZ
    dof rx
    limits (0.0 90.0)
  end
  begin
     id 30
     name rthumb
     direction -0.707107 -6.34826e-011 0.707107   
     length 0.579358   
     axis -90 -45 -2.85299e-015   XYZ
    dof rx rz
    limits (-45.0 45.0)
           (-45.0 45.0)
  end
:hierarchy
  begin
    root lhipjoint rhipjoint lowerback
    lhipjoint lfemur
    lfemur ltibia
    ltibia lfoot
    lfoot ltoes
    rhipjoint rfemur
    rfemur rtibia
    rtibia rfoot
    rfoot rtoes
    lowerback upperback
    upperback thorax
    thorax lowerneck lclavicle rclavicle
    lowerneck upperneck
    upperneck head
    lclavicle lhumerus
    lhumerus lradius
    lradius lwrist
    lwrist lhand lthumb
    lhand lfingers
    rclavicle rhumerus
    rhumerus rradius
    rradius rwrist
    rwrist rhand rthumb
    rhand rfingers
  end

#!OML:ASF H:\IndianDance\Patient Classification 1\Patient 1\Session 1\dancer.ASF
:FULLY-SPECIFIED
:DEGREES
796
root -3.22938 12.6437 10.3892 -169.726 5.15089 -182.672
lowerback 19.2703 -0.859974 -9.51291
upperback -2.93924 -3.5777 -8.38576
thorax -14.2947 -0.88905 -3.19497
lowerneck -19.7648 10.1289 6.44162
upperneck 20.3543 13.4083 -2.9996
head 10.3985 6.44157 -0.0550507
rclavicle 0 2.00375e-013
rhumerus -3.17033 56.2927 -25.5823
rradius 83.5277
rwrist 2.4492
rhand -49.8551 51.6879
rfingers 7.12502
rthumb -22.4501 382.973
lclavicle 0 2.00375e-013
lhumerus 61.0629 -63.0135 15.318
lradius 95.1762
lwrist 16.2998
lhand -31.3508 6.12454
lfingers 7.12502
lthumb -4.62187 -323.946
rfemur -424.077 -29.2572 386.72
rtibia 93.7107
rfoot -25.8125 -4.12927
rtoes -3.78565
lfemur -40.2003 33.8601 7.23695
ltibia 75.0115
lfoot -3.20923 -22.6661
ltoes -22.5512
797
root -3.23628 12.5707 10.4328 -169.569 5.06227 -182.74
lowerback 19.625 -0.630373 -9.2386
upperback -2.90251 -3.27085 -8.24609
thorax -14.4718 -0.775765 -3.28139
lowerneck -19.9018 9.89659 6.18714
upperneck 20.219 13.117 -3.01766
head 10.3435 6.2813 -0.0696936
rclavicle 1.66979e-014 1.20861e-013
rhumerus -3.30403 56.6826 -24.1085
rradius 85.0221
rwrist 2.63344
rhand -50.0944 52.3421
rfingers 7.12502
rthumb -22.6797 383.655
lclavicle 1.66979e-014 1.20861e-013
lhumerus 60.1253 -62.471 13.7731
lradius 96.6556
lwrist 13.962
lhand -33.4991 2.74016
lfingers 7.12502
lthumb -6.69604 -327.386
rfemur -425.619 -29.3889 386.911
rtibia 95.2214
rfoot -24.9673 -4.1539
rtoes -4.72348
lfemur -43.4454 35.8436 5.1703
ltibia 79.5689
lfoot -4.36522 -23.6768
ltoes -23.4147
798
root -3.24569 12.4837 10.4743 -169.387 5.03507 -182.764
lowerback 19.9257 -0.387348 -8.95
upperback -2.88543 -2.93618 -8.08448
thorax -14.6379 -0.652923 -3.36184
lowerneck -20.0159 9.6493 5.93799
upperneck 20.066 12.8042 -3.03617
head 10.2782 6.1123 -0.089901
rclavicle 1.11319e-014 5.725e-014
rhumerus -3.39763 57.0481 -22.6358
rradius 86.4519
rwrist 2.89442
rhand -50.3303 53.0339
rfingers 7.12502
rthumb -22.9061 384.375
lclavicle 1.11319e-014 5.725e-014
lhumerus 59.0691 -61.9836 12.3762
lradius 97.9971
lwrist 12.049
lhand -35.5332 -0.949285
lfingers 7.12502
lthumb -8.65936 -331.147
rfemur -427.276 -29.4779 387.136
rtibia 96.8718
rfoot -24.1802 -4.16733
rtoes -5.72953
lfemur -46.7164 37.8186 2.97242
ltibia 83.9714
lfoot -5.58348 -24.5015
ltoes -24.2819
799
root -3.2569 12.3822 10.5135 -169.194 5.0513 -182.716
lowerback 20.1747 -0.135724 -8.62643
upperback -2.87652 -2.57467 -7.89469
thorax -14.7807 -0.523202 -3.439
lowerneck -20.1113 9.38551 5.69207
upperneck 19.8921 12.4651 -3.04621
head 10.2014 5.93303 -0.112812
rclavicle -1.82882e-014 7.95139e-014
rhumerus -3.4708 57.3745 -21.1999
rradius 87.8303
rwrist 3.17
rhand -50.5292 53.6708
rfingers 7.12502
rthumb -23.0969 385.035
lclavicle -1.82882e-014 7.95139e-014
lhumerus 57.9355 -61.5414 11.0923
lradius 99.194
lwrist 10.4899
lhand -37.4494 -4.74903
lfingers 7.12502
lthumb -10.5082 -335.032
rfemur -429 -29.5312 387.419
rtibia 98.643
rfoot -23.5038 -4.16436
rtoes -6.67866
lfemur -50.007 39.7603 0.686253
ltibia 88.186
lfoot -6.801 -25.2313
ltoes -25.0432
800
root -3.26909 12.266 10.5502 -169.006 5.09038 -182.572
lowerback 20.4152 0.134133 -8.28322
upperback -2.88584 -2.18505 -7.6472
thorax -14.9364 -0.383828 -3.47146
lowerneck -20.214 9.09341 5.42628
upperneck 19.7427 12.0917 -3.03666
head 10.1316 5.73886 -0.129794
rclavicle 2.62396e-014 0
rhumerus -3.55104 57.6781 -19.8089
rradius 89.1611
rwrist 3.43825
rhand -50.679 54.2255
rfingers 7.12502
rthumb -23.2407 385.608
lclavicle 2.62396e-014 0
lhumerus 56.741 -61.1743 9.94251
lradius 100.244
lwrist 9.20864
lhand -39.2654 -8.45449
lfingers 7.12502
lthumb -12.2596 -338.834
rfemur -430.74 -29.5618 387.779
rtibia 100.518
rfoot -22.9719 -4.14431
rtoes -7.44953
lfemur -53.3097 41.6381 -1.64862
ltibia 92.1812
lfoot -8.02512 -25.9349
ltoes -25.7934
801
root -3.28166 12.1358 10.5845 -168.845 5.13183 -182.32
lowerback 20.6489 0.395274 -7.8738
upperback -2.89589 -1.78826 -7.36708
thorax -15.0877 -0.248482 -3.50719
lowerneck -20.3231 8.78528 5.16562
upperneck 19.6051 11.6867 -2.98673
head 10.0645 5.53495 -0.137443
rclavicle 3.97569e-015 -2.8625e-014
rhumerus -3.64781 57.9394 -18.5427
rradius 90.4424
rwrist 3.69177
rhand -50.7858 54.7194
rfingers 7.12502
rthumb -23.3432 386.115
lclavicle 3.97569e-015 -2.8625e-014
lhumerus 55.5136 -60.8644 8.84258
lradius 101.163
lwrist 8.13215
lhand -40.9485 -11.8693
lfingers 7.12502
lthumb -13.882 -342.353
rfemur -432.445 -29.5881 388.22
rtibia 102.482
rfoot -22.595 -4.10504
rtoes -7.97698
lfemur -56.5978 43.414 -3.99727
ltibia 95.9235
lfoot -9.17202 -26.7093
ltoes -26.3834
802
root -3.29406 11.9917 10.6165 -168.724 5.15168 -181.951
lowerback 20.9039 0.638344 -7.39322
upperback -2.90639 -1.39741 -7.04732
thorax -15.2502 -0.122904 -3.53752
lowerneck -20.4372 8.46466 4.91407
upperneck 19.4857 11.2552 -2.8966
head 10.0031 5.32395 -0.135454
rclavicle -1.03368e-014 -7.31528e-014
rhumerus -3.76315 58.1667 -17.4114
rradius 91.6698
rwrist 3.95648
rhand -50.8691 55.1057
rfingers 7.12502
rthumb -23.423 386.511
lclavicle -1.03368e-014 -7.31528e-014
lhumerus 54.25 -60.6229 7.80407
lradius 101.955
lwrist 7.18985
lhand -42.4618 -14.815
lfingers 7.12502
lthumb -15.34 -345.404
rfemur -434.077 -29.6372 388.756
rtibia 104.525
rfoot -22.3537 -4.09367
rtoes -8.3799
lfemur -59.8511 45.0486 -6.31992
ltibia 99.3883
lfoot -10.1876 -27.6139
ltoes -26.7891
803
root -3.30554 11.8346 10.6464 -168.66 5.13476 -181.474
lowerback 21.1981 0.852426 -6.84557
upperback -2.91353 -1.02664 -6.69552
thorax -15.4301 -0.0124474 -3.56527
lowerneck -20.5588 8.14018 4.68826
upperneck 19.3868 10.8058 -2.77162
head 9.95066 5.11021 -0.126716
rclavicle -1.82882e-014 -8.90555e-014
rhumerus -3.90034 58.3581 -16.4439
rradius 92.835
rwrist 4.22091
rhand -50.9384 55.4876
rfingers 7.12502
rthumb -23.4896 386.902
lclavicle -1.82882e-014 -8.90555e-014
lhumerus 52.9671 -60.4464 6.78529
lradius 102.642
lwrist 6.36159
lhand -43.8004 -17.239
lfingers 7.12502
lthumb -16.6291 -347.931
rfemur -435.613 -29.7297 389.368
rtibia 106.633
rfoot -22.2189 -4.07038
rtoes -8.53777
lfemur -63.0265 46.5041 -8.5892
ltibia 102.551
lfoot -11.0074 -28.699
ltoes -26.9526
804
root -3.31566 11.6649 10.6745 -168.661 5.06899 -180.914
lowerback 21.5446 1.03263 -6.24186
upperback -2.91172 -0.682491 -6.32081
thorax -15.6281 0.0814765 -3.5933
lowerneck -20.7084 8.08641 4.37808
upperneck 19.3325 10.2406 -2.54678
head 9.90853 4.70255 -0.109663
rclavicle -3.53837e-014 2.70347e-014
rhumerus -4.06842 58.5081 -15.6465
rradius 93.9174
rwrist 4.54037
rhand -51.0225 55.8854
rfingers 7.12502
rthumb -23.5702 387.31
lclavicle -3.53837e-014 2.70347e-014
lhumerus 51.7005 -60.3282 5.75032
lradius 103.245
lwrist 5.65531
lhand -44.913 -19.1465
lfingers 7.12502
lthumb -17.6999 -349.932
rfemur -437.038 -29.8981 390.033
rtibia 108.792
rfoot -22.15 -4.0344
rtoes -8.48393
lfemur -66.089 47.7457 -10.795
ltibia 105.405
lfoot -11.6787 -29.9138
ltoes -26.6308
805
root -3.32396 11.4835 10.701 -168.734 4.94787 -180.295
lowerback 21.9492 1.17039 -5.59562
upperback -2.89822 -0.376865 -5.93526
thorax -15.8445 0.155127 -3.62431
lowerneck -20.8496 7.75045 4.20979
upperneck 19.2579 9.78756 -2.37462
head 9.87227 4.50481 -0.0900995
rclavicle 2.0276e-014 -6.36111e-014
rhumerus -4.26954 58.6132 -15.0398
rradius 94.9024
rwrist 4.94699
rhand -51.1413 56.3065
rfingers 7.12502
rthumb -23.6842 387.746
lclavicle 2.0276e-014 -6.36111e-014
lhumerus 50.4664 -60.2618 4.65248
lradius 103.791
lwrist 5.06599
lhand -45.8223 -20.6389
lfingers 7.12502
lthumb -18.5748 -351.506
rfemur -438.34 -30.1586 390.724
rtibia 110.97
rfoot -22.1064 -3.99216
rtoes -8.31754
lfemur -68.9919 48.764 -12.9127
ltibia 107.975
lfoot -12.0841 -31.1705
ltoes -25.0756
806
root -3.32981 11.292 10.7261 -168.876 4.77473 -179.651
lowerback 22.4068 1.26929 -4.94042
upperback -2.87124 -0.110325 -5.54851
thorax -16.0743 0.211708 -3.64988
lowerneck -20.9931 7.42283 4.07485
upperneck 19.1784 9.3331 -2.19202
head 9.83751 4.31007 -0.0718852
rclavicle -1.59028e-015 0
rhumerus -4.52179 58.6679 -14.6261
rradius 95.7914
rwrist 5.43296
rhand -51.2838 56.7575
rfingers 7.12502
rthumb -23.8208 388.214
lclavicle -1.59028e-015 0
lhumerus 49.2885 -60.2479 3.48723
lradius 104.281
lwrist 4.57977
lhand -46.5505 -21.8644
lfingers 7.12502
lthumb -19.2751 -352.8
rfemur -439.514 -30.5124 391.396
rtibia 113.125
rfoot -22.0838 -3.87567
rtoes -7.94898
lfemur -71.6564 49.5842 -14.872
ltibia 110.317
lfoot -13.037 -31.5675
ltoes -23.502
